<svg width="48" height="48" viewBox="0 0 48 48" fill="none" xmlns="http://www.w3.org/2000/svg">
<path d="M12.8386 39.0455C12.8386 32.9415 17.4946 28.0955 23.95 27.9928C30.0246 27.8968 35.0446 32.1481 35.0613 39.0455H12.8386Z" fill="#708090"/>
<path fill-rule="evenodd" clip-rule="evenodd" d="M26.7445 17.8345L24.4272 15.3412L26.7685 9.53515L22.2198 7.42249L14.1985 13.9325L14.7085 18.3265L14.3692 20.1845L15.0612 21.6392L15.3185 24.2018H25.2905L25.2812 20.5038L26.7445 17.8345ZM18.2905 20.102H21.7225L21.3779 16.1634H17.9459L18.2905 20.102Z" fill="#708090"/>
<path d="M19.8262 38.641C19.8262 37.5472 20.2607 36.4982 21.0341 35.7248C21.8075 34.9514 22.8564 34.517 23.9502 34.517C25.0439 34.517 26.0929 34.9514 26.8663 35.7248C27.6397 36.4982 28.0742 37.5472 28.0742 38.641M36.3922 29.1849C38.5375 31.2469 39.9355 34.9303 39.9355 38.2803M7.96484 38.2796C8.08942 34.8974 9.42362 31.6721 11.7248 29.1903M30.7362 11.2903L31.2155 16.4009L30.6702 18.987L31.7555 21.8403L31.8588 24.2016M15.2668 23.6869L15.0615 21.6389L14.3695 20.1843L14.7088 18.3263L14.1988 13.9323" stroke="#48525C" stroke-width="1.33333" stroke-linecap="round" stroke-linejoin="round"/>
<path d="M12.4954 15.3225L22.22 7.42249L33.0974 12.3625" stroke="#48525C" stroke-width="1.33333" stroke-linecap="round" stroke-linejoin="round"/>
<path d="M17.1455 11.4552L16.7195 8.26587" stroke="#48525C" stroke-width="1.33333" stroke-miterlimit="10" stroke-linecap="round"/>
<path d="M17.9463 16.1631H21.3783L21.723 20.1018M25.443 12.8245L24.4276 15.3411L26.745 17.8158L25.287 20.5051L25.2916 24.1425M8.21362 24.2018H21.7836M28.5603 24.2018H39.787M27.319 28.4098C29.547 29.0284 31.5107 30.3606 32.9092 32.202C34.3077 34.0435 35.0638 36.2928 35.0616 38.6051M12.839 38.6051C12.839 33.7325 16.579 29.1138 22.003 28.1738" stroke="#48525C" stroke-width="1.33333" stroke-linecap="round" stroke-linejoin="round"/>
</svg>
